<?xml version="1.0" encoding="iso-8859-1"?>
<!-- Generator: Adobe Illustrator 19.0.0, SVG Export Plug-In . SVG Version: 6.00 Build 0)  -->
<svg version="1.1" id="Capa_1" xmlns="http://www.w3.org/2000/svg" xmlns:xlink="http://www.w3.org/1999/xlink" x="0px" y="0px"
	 viewBox="0 0 471.641 471.641" style="enable-background:new 0 0 471.641 471.641;" xml:space="preserve">
<g>
	<g>
		<path d="M431.666,49.412c-51.692-50.578-134.33-50.567-186.009,0.025L28.911,266.184c-39.192,40.116-38.443,104.407,1.673,143.599
			c39.456,38.548,102.47,38.548,141.926,0l196.267-196.267c25.515-25.515,25.515-66.884,0-92.399
			c-25.515-25.515-66.884-25.515-92.399,0L88.644,308.85c-6.548,6.78-6.36,17.584,0.42,24.132c6.614,6.388,17.099,6.388,23.713,0
			L300.51,145.249c12.449-11.926,32.209-11.501,44.134,0.948c11.565,12.073,11.565,31.114,0,43.187L148.378,385.65
			c-26.514,26.137-69.197,25.831-95.334-0.683c-25.873-26.246-25.873-68.405,0-94.651L269.79,73.569
			c38.608-38.622,101.214-38.633,139.836-0.026c38.622,38.607,38.633,101.214,0.026,139.836L192.905,430.126
			c-7.159,6.131-7.993,16.905-1.862,24.064c6.131,7.159,16.905,7.993,24.064,1.862c0.668-0.572,1.29-1.194,1.862-1.862
			l216.747-216.747C485.073,184.954,484.156,100.769,431.666,49.412z"/>
	</g>
</g>
<g>
</g>
<g>
</g>
<g>
</g>
<g>
</g>
<g>
</g>
<g>
</g>
<g>
</g>
<g>
</g>
<g>
</g>
<g>
</g>
<g>
</g>
<g>
</g>
<g>
</g>
<g>
</g>
<g>
</g>
</svg>
